<svg width="24" height="24" viewBox="0 0 24 24" fill="none" xmlns="http://www.w3.org/2000/svg">
    <path d="M21 11.5C21.0034 12.8199 20.6951 14.1219 20.1 15.3C19.3944 16.7118 18.3098 17.8992 16.9674 18.7293C15.6251 19.5594 14.0782 19.9994 12.5 20C11.1801 20.0035 9.87812 19.6951 8.7 19.1L3 21L4.9 15.3C4.30493 14.1219 3.99656 12.8199 4 11.5C4.00061 9.92179 4.44061 8.37488 5.27072 7.03258C6.10083 5.69028 7.28825 4.6056 8.7 3.90003C9.87812 3.30496 11.1801 2.99659 12.5 3.00003H13C15.0843 3.11502 17.053 3.99479 18.5291 5.47089C20.0052 6.94699 20.885 8.91568 21 11V11.5Z" stroke="#65D072" stroke-width="2" stroke-linecap="round" stroke-linejoin="round"/>
    <g clip-path="url(#clip0_856_226)">
    <path d="M17.0834 13.7549V15.1299C17.0839 15.2575 17.0578 15.3839 17.0066 15.5008C16.9555 15.6178 16.8805 15.7228 16.7864 15.8091C16.6924 15.8954 16.5813 15.9611 16.4604 16.002C16.3395 16.0428 16.2114 16.058 16.0842 16.0465C14.6739 15.8933 13.3191 15.4114 12.1288 14.6395C11.0214 13.9358 10.0825 12.9969 9.37882 11.8895C8.60423 10.6938 8.12218 9.33242 7.97174 7.91571C7.96028 7.78897 7.97535 7.66123 8.01597 7.54063C8.05659 7.42002 8.12187 7.3092 8.20767 7.21521C8.29347 7.12122 8.3979 7.04612 8.51431 6.9947C8.63072 6.94329 8.75656 6.91667 8.88382 6.91655H10.2588C10.4813 6.91436 10.6969 6.99313 10.8655 7.13817C11.0342 7.28321 11.1444 7.48463 11.1755 7.70488C11.2335 8.14491 11.3412 8.57696 11.4963 8.9928C11.558 9.15685 11.5713 9.33513 11.5348 9.50654C11.4982 9.67794 11.4133 9.83527 11.2901 9.95988L10.708 10.542C11.3605 11.6894 12.3105 12.6395 13.458 13.292L14.0401 12.7099C14.1647 12.5867 14.322 12.5017 14.4934 12.4652C14.6648 12.4286 14.8431 12.442 15.0072 12.5036C15.423 12.6588 15.855 12.7664 16.2951 12.8245C16.5177 12.8559 16.721 12.968 16.8664 13.1396C17.0118 13.3111 17.089 13.5301 17.0834 13.7549Z" stroke="#65D072" stroke-width="1.5" stroke-linecap="round" stroke-linejoin="round"/>
    </g>
    <defs>
    <clipPath id="clip0_856_226">
    <rect width="11" height="11" fill="white" transform="translate(7 6)"/>
    </clipPath>
    </defs>
</svg>
    