<svg width="26" height="26" viewBox="0 0 26 26" fill="none" xmlns="http://www.w3.org/2000/svg">
    <path d="M24.9166 3.25015C23.8792 3.98192 22.7305 4.5416 21.5149 4.90765C20.8625 4.15745 19.9954 3.62573 19.0309 3.3844C18.0664 3.14308 17.051 3.20378 16.1222 3.55831C15.1933 3.91284 14.3957 4.54409 13.8373 5.36668C13.2789 6.18927 12.9866 7.16352 12.9999 8.15765V9.24098C11.0961 9.29035 9.20963 8.86812 7.50851 8.01188C5.80739 7.15565 4.34443 5.89201 3.24992 4.33348C3.24992 4.33348 -1.08341 14.0835 8.66658 18.4168C6.43549 19.9313 3.77767 20.6907 1.08325 20.5835C10.8333 26.0002 22.7499 20.5835 22.7499 8.12515C22.7489 7.82339 22.7199 7.52238 22.6633 7.22599C23.7689 6.1356 24.5491 4.75892 24.9166 3.25015V3.25015Z" stroke="#4D9FEB" stroke-width="2" stroke-linecap="round" stroke-linejoin="round"/>
</svg>
    