<svg width="26" height="24" viewBox="0 0 26 24" fill="none" xmlns="http://www.w3.org/2000/svg">
    <g clip-path="url(#clip0_856_238)">
    <path d="M24.4976 4.44373C24.368 3.76837 24.1041 3.14958 23.7325 2.64987C23.3609 2.15015 22.8949 1.7872 22.3813 1.59767C20.5051 1 13 1 13 1C13 1 5.49494 1 3.61867 1.65459C3.10515 1.84412 2.63906 2.20707 2.26748 2.70679C1.8959 3.20651 1.632 3.82529 1.50242 4.50065C1.15903 6.98462 0.991063 9.50445 1.00062 12.0285C0.988383 14.5715 1.15636 17.1105 1.50242 19.6132C1.64527 20.2676 1.91509 20.8628 2.2858 21.3414C2.65652 21.82 3.11559 22.1658 3.61867 22.3454C5.49494 23 13 23 13 23C13 23 20.5051 23 22.3813 22.3454C22.8949 22.1559 23.3609 21.7929 23.7325 21.2932C24.1041 20.7935 24.368 20.1747 24.4976 19.4994C24.8383 17.0341 25.0063 14.5335 24.9994 12.0285C25.0116 9.48545 24.8436 6.9464 24.4976 4.44373V4.44373Z" stroke="#EA3323" stroke-width="2" stroke-linecap="round" stroke-linejoin="round"/>
    <path d="M10 15.9617L17 11.9809L10 8V15.9617Z" stroke="#EA3323" stroke-width="2" stroke-linecap="round" stroke-linejoin="round"/>
    </g>
    <defs>
    <clipPath id="clip0_856_238">
    <rect width="26" height="24" fill="white"/>
    </clipPath>
    </defs>
</svg>
    

    