<?xml version="1.0" encoding="utf-8"?>
<!-- Generator: Adobe Illustrator 16.0.3, SVG Export Plug-In . SVG Version: 6.00 Build 0)  -->
<!DOCTYPE svg PUBLIC "-//W3C//DTD SVG 1.1//EN" "http://www.w3.org/Graphics/SVG/1.1/DTD/svg11.dtd">
<svg version="1.1" id="Camada_1" xmlns="http://www.w3.org/2000/svg" xmlns:xlink="http://www.w3.org/1999/xlink" x="0px" y="0px"
	 width="300.111px" height="30px" viewBox="0 0 300.111 30" enable-background="new 0 0 300.111 30" xml:space="preserve">
<g>
	<path d="M149.1,13.755v-0.097c3.45-0.856,5.256-3.055,5.256-6.471c0-6.504-5.454-6.966-9.56-6.932h-0.262h-12.615
		v1.839c2.068,0.099,2.233,0.396,2.233,2.596v20.233c0,2.14-0.165,2.466-2.233,2.53v1.873h12.615h1.115
		c4.667,0,9.592-1.051,9.592-7.785C155.241,15.857,151.465,14.316,149.1,13.755z M141.938,3.901c0-0.821,0.1-1.15,1.446-1.15
		c0.362,0,0.724,0.033,1.15,0.232c0.984,0.458,2.035,1.708,2.035,4.762c0,1.97-0.459,4.04-2.035,4.797
		c-0.362,0.196-0.854,0.26-1.381,0.26h-1.216V3.901z M144.534,26.766c-0.166,0.033-0.362,0.033-0.56,0.033
		c-1.643,0-2.038-0.954-2.038-2.334v-9.198h1.249c0.526,0,0.921,0.099,1.349,0.297c1.841,0.787,2.562,3.35,2.562,5.681
		C147.096,25.059,145.946,26.503,144.534,26.766z"/>
	<path d="M286.941,26.173c0,1.543-0.132,1.741-1.611,1.806v1.35h14.486l0.296-6.866h-1.117
		c-1.278,4.14-2.2,5.06-4.238,5.06c-1.478,0-2.166-0.23-2.166-1.705v-6.474h1.478c1.415,0,1.907,0.56,2.303,2.759h1.115V14.71
		h-1.115c-0.396,2.202-0.888,2.696-2.303,2.696h-1.478V11.39c-0.066-0.952,0.034-1.083,0.755-1.083h1.183
		c2.169,0,2.857,1.415,3.648,4.239h1.146v-6.01H285.33V9.88c1.479,0.066,1.611,0.263,1.611,1.809L286.941,26.173L286.941,26.173z"/>
	<path d="M283.424,15.104V9.453c-1.545-1.118-3.646-1.38-5.254-1.38c-4.207,0-6.669,2.663-6.669,6.67
		c0,3.25,1.873,5.026,5.255,6.702c2.69,1.347,3.187,2.76,3.22,4.104c-0.033,1.447-0.788,2.467-2.201,2.43
		c-2.198-0.063-3.68-1.968-5.189-6.107h-1.148l0.393,6.179c1.511,1.248,3.681,1.74,5.749,1.74c5.257-0.067,7.095-3.22,7.161-6.935
		c-0.066-4.27-2.725-5.877-5.256-7.027c-1.806-0.823-3.316-1.807-3.316-3.482c0-1.512,0.82-2.464,2.005-2.464
		c1.543,0,2.92,1.216,4.171,5.225h1.081V15.104z"/>
	<path d="M253.564,8.535v1.344c1.446,0.066,1.611,0.263,1.611,1.809v9.591c0,2.729-0.035,4.041-0.199,5.156
		c-0.064,1.151-0.329,1.446-0.889,1.479l-0.655,0.063v1.351h6.045v-1.351l-1.183-0.095c-0.624-0.032-0.919-0.394-1.081-1.512
		c-0.104-1.052-0.168-2.363-0.168-5.093v-7.751h0.168c2.758,5.289,5.122,10.15,7.881,15.8h3.975V16.55
		c0-2.66,0.032-3.976,0.132-5.16c0.099-1.116,0.36-1.444,0.951-1.444l0.592-0.066V8.535h-6.011v1.344l1.182,0.066
		c0.626,0.064,0.921,0.428,1.086,1.512c0.13,1.116,0.165,2.432,0.165,5.092v4.533H267c-2.299-4.564-4.402-8.445-6.244-12.548
		L253.564,8.535L253.564,8.535z"/>
	<path d="M239.997,26.173c0,1.543-0.131,1.741-1.643,1.806v1.35h14.484l0.328-6.866h-1.147
		c-1.248,4.14-2.201,5.06-4.238,5.06c-1.476,0-2.169-0.23-2.169-1.705v-6.474h1.513c1.446,0,1.903,0.56,2.301,2.759h1.115V14.71
		h-1.115c-0.396,2.202-0.854,2.696-2.301,2.696h-1.513V11.39c-0.065-0.952,0.066-1.083,0.823-1.083h1.118
		c2.164,0,2.854,1.415,3.678,4.239h1.115v-6.01h-13.992V9.88c1.511,0.066,1.643,0.263,1.643,1.809V26.173L239.997,26.173z"/>
	<path d="M235.531,11.688c0-1.545,0.132-1.742,1.606-1.809V8.535h-8.869v1.344c1.511,0.066,1.612,0.263,1.612,1.809
		v14.485c0,1.543-0.103,1.741-1.612,1.806v1.35h8.869v-1.35c-1.476-0.063-1.606-0.263-1.606-1.806V11.688z"/>
	<path d="M221.305,11.688c0-1.545,0.131-1.742,1.74-1.809V8.535h-9v1.344c1.48,0.066,1.61,0.263,1.61,1.809v14.485
		c0,1.543-0.13,1.741-1.61,1.806v1.35h13.859l0.3-6.703h-1.117c-0.92,3.879-2.104,4.896-3.68,4.896
		c-1.479,0-2.104-0.197-2.104-1.707L221.305,11.688L221.305,11.688z"/>
	<path d="M211.187,11.688c0-1.545,0.168-1.742,1.61-1.809V8.535h-8.836v1.344c1.51,0.066,1.608,0.263,1.608,1.809
		v14.485c0,1.543-0.1,1.741-1.608,1.806v1.35h8.836v-1.35c-1.442-0.063-1.61-0.263-1.61-1.806V11.688z"/>
	<path d="M189.34,8.535v6.601h1.151c0.723-2.462,1.018-4.83,4.305-4.83h2.232
		c-2.892,6.014-5.883,12.058-9.067,18.231l0.396,0.79h14.913l0.263-6.897h-1.147c-1.514,3.777-2.168,5.092-4.861,5.092h-2.795
		c2.824-6.011,5.72-12.088,8.837-18.199l-0.295-0.786L189.34,8.535L189.34,8.535z"/>
	<path d="M187.5,26.404c-0.425-1.445-1.148-4.336-1.97-7.523l-2.658-10.346h-3.943H178.5l-2.789,10.443
		c-0.856,3.22-1.646,6.078-2.105,7.59c-0.326,1.146-0.557,1.313-1.872,1.408v1.351h6.18v-1.351l-1.383-0.127
		c-0.593-0.066-0.726-0.426-0.559-1.281l0.92-3.877h2.037h1.904l0.886,3.713c0.232,0.919,0.165,1.412-0.393,1.479l-1.149,0.096v1.35
		h9.199v-1.35C187.996,27.816,187.865,27.686,187.5,26.404z M178.929,20.786h-1.611l1.611-6.604V14.15h0.131l1.446,6.636H178.929z"
		/>
	<path d="M170.781,24.104c-0.396-2.396-0.854-4.304-3.612-5.188V18.85c2.499-0.393,4.233-2.234,4.233-4.862
		c0-4.599-3.185-5.451-6.337-5.451h-0.985h-8.868v1.344c1.413,0.066,1.541,0.263,1.541,1.809v14.485
		c0,1.543-0.128,1.741-1.541,1.806v1.35h8.704v-1.35c-1.476-0.063-1.61-0.263-1.61-1.806v-6.208h0.823
		c0.394,0,0.722,0.166,0.951,0.46c0.196,0.261,0.394,0.726,0.491,1.313c0.162,0.691,0.363,3.057,0.691,4.436
		c0.623,2.364,1.642,3.154,4.269,3.154h3.189v-1.35C171.272,27.65,171.108,26.242,170.781,24.104z M164.079,18.025
		c-0.265,0.1-0.559,0.166-0.888,0.166h-0.888V11.49c0-0.922,0.199-1.185,1.117-1.185c0.199,0,0.428,0.067,0.657,0.099
		c0.921,0.362,1.741,1.511,1.741,3.812C165.821,15.926,165.361,17.566,164.079,18.025z"/>
	<path d="M110.673,7.942c-6.209,0-8.937,4.139-8.937,10.842c0,6.731,2.761,10.87,8.937,10.87
		c6.209,0,8.902-4.106,8.902-10.87C119.575,12.049,116.882,7.942,110.673,7.942z M110.673,27.852c-2.563,0-2.99-4.998-2.99-9.066
		c0-3.781,0.428-9.034,2.99-9.034c2.529,0,2.923,5.253,2.923,9.034C113.596,22.854,113.202,27.852,110.673,27.852z"/>
	<path d="M98.847,11.554c0-1.544,0.098-1.739,1.608-1.804V8.403h-8.868V9.75c1.478,0.064,1.608,0.26,1.608,1.804
		v14.487c0,1.547-0.131,1.742-1.608,1.811v1.344h8.868v-1.344c-1.511-0.067-1.608-0.264-1.608-1.811V11.554z"/>
	<path d="M77.855,26.041c0,1.547-0.131,1.742-1.609,1.811v1.344h14.487l0.296-6.862h-1.117
		c-1.281,4.136-2.201,5.058-4.238,5.058c-1.479,0-2.168-0.229-2.168-1.707v-6.472h1.479c1.445,0,1.906,0.558,2.332,2.759H88.4
		v-7.393h-1.084c-0.426,2.199-0.887,2.693-2.332,2.693h-1.479V11.26c-0.066-0.953,0.064-1.082,0.755-1.082h1.184
		c2.167,0,2.857,1.412,3.646,4.236h1.147v-6.01H76.246V9.75c1.479,0.064,1.609,0.26,1.609,1.804L77.855,26.041L77.855,26.041z"/>
	<path d="M74.243,23.973c-0.396-2.396-0.855-4.305-3.582-5.188V18.72c2.463-0.397,4.205-2.237,4.205-4.864
		c0-4.599-3.154-5.453-6.341-5.453h-0.984V8.402h-8.938V9.75c1.513,0.064,1.61,0.26,1.61,1.804V26.04c0,1.547-0.099,1.742-1.61,1.81
		v1.346h8.772V27.85c-1.479-0.066-1.578-0.263-1.578-1.81v-6.209h0.789c0.395,0,0.722,0.163,0.954,0.461v0.001
		c0.229,0.264,0.392,0.725,0.492,1.313c0.163,0.69,0.36,3.056,0.689,4.436c0.625,2.365,1.675,3.154,4.271,3.154h3.187V27.85
		C74.735,27.521,74.603,26.107,74.243,23.973z M67.541,17.896L67.541,17.896c-0.265,0.097-0.56,0.16-0.889,0.16h-0.854v-6.7
		c0-0.92,0.165-1.181,1.085-1.181c0.229,0,0.426,0.065,0.658,0.097v0.001c0.919,0.362,1.74,1.511,1.74,3.812
		C69.281,15.793,68.821,17.436,67.541,17.896z"/>
	<path d="M56.601,23.973c-0.395-2.396-0.854-4.305-3.58-5.188V18.72c2.497-0.397,4.238-2.237,4.238-4.864
		c0-4.599-3.187-5.453-6.341-5.453H49.9h-8.901V9.75c1.478,0.064,1.608,0.26,1.608,1.804v14.487c0,1.547-0.131,1.742-1.608,1.811
		v1.344h8.77v-1.344c-1.478-0.067-1.607-0.264-1.607-1.811v-6.208h0.819c0.396,0,0.657,0.163,0.92,0.46
		c0.229,0.264,0.395,0.725,0.524,1.313c0.133,0.69,0.329,3.056,0.691,4.436c0.623,2.365,1.641,3.154,4.236,3.154h3.22V27.85
		C57.092,27.521,56.961,26.107,56.601,23.973z M49.9,17.896c-0.264,0.098-0.559,0.162-0.888,0.162h-0.853v-6.701
		c0-0.92,0.164-1.181,1.083-1.181c0.196,0,0.427,0.065,0.656,0.097c0.952,0.362,1.708,1.511,1.708,3.812
		C51.608,15.793,51.181,17.436,49.9,17.896z"/>
	<path d="M31.042,7.942c-6.174,0-8.901,4.139-8.901,10.842c0,6.731,2.759,10.87,8.901,10.87
		c6.21,0,8.937-4.106,8.937-10.87C39.979,12.049,37.286,7.942,31.042,7.942z M31.042,27.852c-2.528,0-2.921-4.998-2.921-9.066
		c0-3.781,0.394-9.034,2.921-9.034c2.597,0,2.99,5.253,2.99,9.034C34.032,22.854,33.639,27.852,31.042,27.852z"/>
	<path d="M20.728,10.242V2.258c-1.607-1.248-4.797-1.872-7.457-1.872c-4.894,0-8.111,1.414-10.217,3.975
		C0.954,7.023,0,11.063,0,15.301c0,4.73,1.183,8.541,3.219,10.872c2.201,2.431,5.158,3.615,9.658,3.615
		c2.727,0,5.717-0.396,8.082-2.072l0.427-8.474h-1.544c-1.676,4.766-3.055,8.146-6.145,8.146c-4.763,0-5.617-7.294-5.617-12.417
		c0-3.681,0.459-12.22,5.52-12.188c3.284,0,4.436,3.845,5.584,7.458L20.728,10.242L20.728,10.242z"/>
</g>
</svg>
