<?xml version="1.0" encoding="utf-8"?>
<!-- Generator: Adobe Illustrator 16.0.3, SVG Export Plug-In . SVG Version: 6.00 Build 0)  -->
<!DOCTYPE svg PUBLIC "-//W3C//DTD SVG 1.1//EN" "http://www.w3.org/Graphics/SVG/1.1/DTD/svg11.dtd">
<svg version="1.1" id="Camada_1" xmlns="http://www.w3.org/2000/svg" xmlns:xlink="http://www.w3.org/1999/xlink" x="0px" y="0px"
	 width="350.029px" height="34.99px" viewBox="0 0 350.029 34.99" enable-background="new 0 0 350.029 34.99" xml:space="preserve">
<g>
	<path fill="#002F67" d="M173.887,15.746v-0.112c4.022-0.999,6.129-3.563,6.129-7.548c0-7.585-6.36-8.123-11.149-8.084h-0.305
		h-14.713v2.146c2.413,0.115,2.605,0.461,2.605,3.027V28.77c0,2.495-0.192,2.876-2.605,2.951v2.185h14.713h1.301
		c5.442,0,11.187-1.226,11.187-9.079C181.048,18.198,176.645,16.401,173.887,15.746z M165.534,4.255
		c0-0.958,0.116-1.342,1.686-1.342c0.424,0,0.846,0.039,1.343,0.271c1.147,0.534,2.374,1.992,2.374,5.554
		c0,2.297-0.535,4.711-2.374,5.594c-0.423,0.229-0.995,0.304-1.61,0.304h-1.418V4.255L165.534,4.255z M168.562,30.92
		c-0.193,0.039-0.423,0.039-0.652,0.039c-1.917,0-2.377-1.111-2.377-2.723V17.51h1.457c0.613,0,1.074,0.115,1.573,0.347
		c2.146,0.918,2.987,3.906,2.987,6.625C171.549,28.929,170.208,30.613,168.562,30.92z"/>
	<path fill="#002F67" d="M334.641,30.228c0,1.8-0.153,2.03-1.88,2.104v1.575h16.896l0.345-8.007h-1.303
		c-1.49,4.828-2.565,5.901-4.942,5.901c-1.724,0-2.525-0.27-2.525-1.988v-7.551h1.725c1.65,0,2.225,0.652,2.686,3.218h1.302v-8.622
		h-1.302c-0.461,2.568-1.034,3.146-2.686,3.146h-1.725v-7.017c-0.076-1.111,0.04-1.263,0.882-1.263h1.379
		c2.529,0,3.333,1.649,4.255,4.942h1.336V9.66h-16.319v1.567c1.727,0.077,1.881,0.307,1.881,2.11v16.891H334.641z"/>
	<path fill="#002F67" d="M330.539,17.32v-6.59c-1.802-1.304-4.252-1.61-6.128-1.61c-4.906,0-7.777,3.106-7.777,7.779
		c0,3.791,2.186,5.862,6.129,7.816c3.139,1.57,3.718,3.219,3.757,4.785c-0.039,1.688-0.92,2.877-2.567,2.833
		c-2.563-0.071-4.291-2.293-6.052-7.12h-1.338l0.457,7.205c1.763,1.455,4.294,2.029,6.704,2.029
		c6.132-0.077,8.274-3.756,8.353-8.089c-0.077-4.979-3.178-6.854-6.13-8.194c-2.105-0.96-3.867-2.106-3.867-4.061
		c0-1.763,0.956-2.874,2.338-2.874c1.8,0,3.406,1.418,4.865,6.094h1.26V17.32H330.539z"/>
	<path fill="#002F67" d="M295.715,9.659v1.567c1.687,0.077,1.878,0.307,1.878,2.109v11.187c0,3.183-0.04,4.713-0.23,6.014
		c-0.074,1.342-0.383,1.687-1.037,1.725l-0.763,0.072v1.576h7.05v-1.577l-1.381-0.109c-0.729-0.038-1.071-0.459-1.262-1.764
		c-0.12-1.227-0.194-2.757-0.194-5.938v-9.04h0.194c3.219,6.168,5.975,11.837,9.191,18.427h4.636V19.008
		c0-3.103,0.038-4.638,0.154-6.018c0.115-1.302,0.42-1.685,1.109-1.685l0.688-0.077V9.659h-7.01v1.567l1.378,0.077
		c0.729,0.075,1.074,0.5,1.267,1.764c0.151,1.301,0.192,2.836,0.192,5.938v5.286h-0.193c-2.681-5.322-5.133-9.849-7.282-14.634
		L295.715,9.659L295.715,9.659z"/>
	<path fill="#002F67" d="M279.894,30.228c0,1.8-0.153,2.03-1.916,2.104v1.575h16.891l0.383-8.007h-1.337
		c-1.455,4.828-2.567,5.901-4.942,5.901c-1.721,0-2.528-0.27-2.528-1.988v-7.551h1.764c1.688,0,2.22,0.652,2.684,3.218h1.302v-8.622
		h-1.302c-0.462,2.568-0.995,3.146-2.684,3.146h-1.764v-7.017c-0.077-1.111,0.076-1.263,0.96-1.263h1.303
		c2.523,0,3.329,1.649,4.29,4.942h1.301V9.66H277.98v1.567c1.762,0.077,1.916,0.307,1.916,2.11v16.891H279.894z"/>
	<path fill="#002F67" d="M274.686,13.336c0-1.802,0.152-2.031,1.872-2.109V9.659h-10.344v1.567c1.763,0.077,1.88,0.307,1.88,2.109
		v16.894c0,1.8-0.12,2.03-1.88,2.104v1.575h10.344v-1.575c-1.722-0.071-1.872-0.306-1.872-2.104V13.336z"/>
	<path fill="#002F67" d="M258.094,13.336c0-1.802,0.152-2.031,2.028-2.109V9.659h-10.496v1.567c1.728,0.077,1.878,0.307,1.878,2.109
		v16.894c0,1.8-0.15,2.03-1.878,2.104v1.575h16.163l0.35-7.816h-1.303c-1.072,4.523-2.453,5.71-4.291,5.71
		c-1.725,0-2.453-0.229-2.453-1.991L258.094,13.336L258.094,13.336z"/>
	<path fill="#002F67" d="M246.294,13.336c0-1.802,0.195-2.031,1.877-2.109V9.659h-10.305v1.567c1.762,0.077,1.875,0.307,1.875,2.109
		v16.894c0,1.8-0.117,2.03-1.875,2.104v1.575h10.305v-1.575c-1.682-0.071-1.877-0.306-1.877-2.104V13.336L246.294,13.336z"/>
	<path fill="#002F67" d="M220.816,9.659v7.698h1.343c0.843-2.872,1.187-5.633,5.021-5.633h2.604
		c-3.374,7.014-6.861,14.062-10.575,21.262l0.463,0.921h17.393l0.307-8.044h-1.338c-1.767,4.405-2.529,5.938-5.669,5.938h-3.26
		c3.294-7.01,6.671-14.098,10.307-21.225l-0.345-0.917L220.816,9.659L220.816,9.659z"/>
	<path fill="#002F67" d="M218.669,30.498c-0.496-1.686-1.339-5.057-2.298-8.772l-3.1-12.065h-4.599h-0.501l-3.253,12.18
		c-0.998,3.754-1.919,7.089-2.454,8.852c-0.381,1.336-0.649,1.531-2.184,1.643v1.575h7.207v-1.577l-1.612-0.147
		c-0.691-0.077-0.847-0.497-0.652-1.494l1.073-4.521h2.376h2.22l1.034,4.33c0.271,1.071,0.191,1.647-0.459,1.726l-1.341,0.11v1.575
		h10.729v-1.575C219.247,32.145,219.095,31.993,218.669,30.498z M208.674,23.946h-1.879l1.879-7.702v-0.038h0.152l1.686,7.739
		L208.674,23.946L208.674,23.946z"/>
	<path fill="#002F67" d="M199.171,27.815c-0.463-2.794-0.997-5.02-4.213-6.05v-0.077c2.914-0.458,4.938-2.605,4.938-5.67
		c0-5.363-3.717-6.357-7.392-6.357h-1.148h-10.343v1.567c1.647,0.077,1.798,0.307,1.798,2.11V30.23c0,1.8-0.149,2.031-1.798,2.105
		v1.575h10.15v-1.575c-1.721-0.072-1.877-0.307-1.877-2.105v-7.239h0.959c0.46,0,0.843,0.193,1.109,0.537
		c0.229,0.303,0.46,0.845,0.572,1.531c0.188,0.806,0.425,3.563,0.807,5.173c0.726,2.757,1.915,3.678,4.979,3.678h3.72v-1.572
		C199.744,31.952,199.553,30.309,199.171,27.815z M191.356,20.726c-0.31,0.116-0.651,0.192-1.035,0.192h-1.035v-7.814
		c0-1.075,0.23-1.381,1.302-1.381c0.232,0,0.5,0.078,0.768,0.115c1.072,0.422,2.029,1.762,2.029,4.444
		C193.387,18.278,192.85,20.191,191.356,20.726z"/>
	<path fill="#002F67" d="M129.072,8.968c-7.241,0-10.422,4.826-10.422,12.644c0,7.852,3.22,12.678,10.422,12.678
		c7.241,0,10.382-4.789,10.382-12.678C139.453,13.758,136.313,8.968,129.072,8.968z M129.072,32.186
		c-2.988,0-3.486-5.829-3.486-10.572c0-4.41,0.499-10.536,3.486-10.536c2.95,0,3.41,6.126,3.41,10.536
		C132.482,26.357,132.021,32.186,129.072,32.186z"/>
	<path fill="#002F67" d="M115.281,13.18c0-1.8,0.114-2.028,1.875-2.104v-1.57h-10.343v1.57c1.724,0.075,1.875,0.305,1.875,2.104
		v16.896c0,1.805-0.152,2.031-1.875,2.111v1.567h10.343v-1.567c-1.762-0.077-1.875-0.308-1.875-2.111V13.18z"/>
	<path fill="#002F67" d="M90.798,30.075c0,1.805-0.151,2.031-1.877,2.111v1.566h16.896l0.345-8.002h-1.303
		c-1.495,4.824-2.567,5.899-4.943,5.899c-1.725,0-2.528-0.268-2.528-1.991V22.11h1.726c1.686,0,2.223,0.651,2.72,3.219h1.263v-8.623
		h-1.264c-0.497,2.564-1.034,3.141-2.72,3.141h-1.727v-7.012c-0.075-1.11,0.075-1.262,0.88-1.262h1.383
		c2.526,0,3.331,1.646,4.251,4.94h1.338V9.507H88.921v1.569c1.727,0.075,1.877,0.305,1.877,2.104V30.075L90.798,30.075z"/>
	<path fill="#002F67" d="M86.585,27.663c-0.461-2.794-0.997-5.021-4.177-6.05v-0.075c2.872-0.465,4.904-2.609,4.904-5.674
		c0-5.364-3.679-6.358-7.396-6.358H78.77V9.504H68.346v1.571c1.765,0.075,1.877,0.305,1.877,2.104v16.894
		c0,1.805-0.114,2.032-1.877,2.11v1.569h10.229v-1.569c-1.725-0.076-1.84-0.307-1.84-2.11v-7.24h0.92
		c0.461,0,0.843,0.189,1.113,0.537v0.001c0.268,0.309,0.457,0.847,0.573,1.531c0.19,0.805,0.42,3.564,0.805,5.174
		c0.729,2.758,1.952,3.679,4.979,3.679h3.718v-1.57C87.16,31.802,87.006,30.152,86.585,27.663z M78.77,20.576L78.77,20.576
		c-0.31,0.113-0.653,0.188-1.037,0.188h-0.997v-7.815c0-1.073,0.191-1.377,1.266-1.377c0.269,0,0.498,0.076,0.769,0.113v0.001
		c1.07,0.423,2.028,1.763,2.028,4.446C80.799,18.123,80.262,20.039,78.77,20.576z"/>
	<path fill="#002F67" d="M66.011,27.663c-0.461-2.794-0.997-5.021-4.175-6.05v-0.075c2.912-0.465,4.941-2.609,4.941-5.674
		c0-5.364-3.716-6.358-7.396-6.358h-1.187h-10.38v1.57c1.724,0.075,1.875,0.305,1.875,2.104v16.896c0,1.805-0.152,2.031-1.875,2.111
		v1.567h10.228v-1.567c-1.724-0.077-1.875-0.308-1.875-2.111v-7.24h0.956c0.461,0,0.767,0.19,1.073,0.536
		c0.267,0.309,0.46,0.847,0.61,1.531c0.156,0.805,0.385,3.564,0.807,5.174c0.727,2.758,1.913,3.679,4.939,3.679h3.755v-1.57
		C66.583,31.802,66.431,30.152,66.011,27.663z M58.197,20.576c-0.309,0.114-0.652,0.189-1.035,0.189h-0.996v-7.816
		c0-1.073,0.191-1.377,1.263-1.377c0.229,0,0.498,0.076,0.766,0.113c1.11,0.423,1.992,1.763,1.992,4.446
		C60.189,18.123,59.691,20.039,58.197,20.576z"/>
	<path fill="#002F67" d="M36.203,8.968c-7.2,0-10.38,4.826-10.38,12.644c0,7.852,3.217,12.678,10.38,12.678
		c7.242,0,10.423-4.789,10.423-12.678C46.626,13.758,43.486,8.968,36.203,8.968z M36.203,32.186c-2.948,0-3.406-5.829-3.406-10.572
		c0-4.41,0.46-10.536,3.406-10.536c3.029,0,3.487,6.126,3.487,10.536C39.691,26.357,39.233,32.186,36.203,32.186z"/>
	<path fill="#002F67" d="M24.175,11.65V2.339c-1.875-1.455-5.594-2.184-8.696-2.184c-5.708,0-9.459,1.649-11.915,4.635
		C1.114,7.895,0,12.606,0,17.55c0,5.517,1.38,9.96,3.755,12.679c2.566,2.835,6.016,4.216,11.264,4.216
		c3.181,0,6.668-0.461,9.425-2.416l0.499-9.883H23.14c-1.954,5.559-3.563,9.501-7.166,9.501c-5.554,0-6.551-8.508-6.551-14.481
		c0-4.293,0.535-14.252,6.438-14.214c3.829,0,5.173,4.484,6.512,8.698L24.175,11.65L24.175,11.65z"/>
</g>
</svg>
